<svg width="400" height="493" viewBox="0 0 400 493" fill="none" xmlns="http://www.w3.org/2000/svg">
<path d="M200 93C89.5403 93 0 182.54 0 293C0 403.46 89.5403 493 200 493C310.46 493 400 403.46 400 293C400 182.54 310.46 93 200 93ZM266.363 381.387C263.218 384.516 259.919 387.798 257.242 390.484C254.831 392.903 253.129 395.887 252.266 399.121C251.048 403.685 250.065 408.298 248.419 412.726L232 463C220.903 465.419 211.815 482.5 200 482.5V432.21C201.363 422.032 193.839 402.968 181.75 390.879C176.911 386.04 174.194 379.476 174.194 372.629V346.815C174.194 337.427 169.137 328.798 160.919 324.258C149.331 317.847 132.847 308.887 121.556 303.202C112.298 298.54 103.734 292.605 96.0323 285.661L95.3871 285.081C89.8795 280.109 84.9896 274.494 80.8226 268.355C73.2581 257.25 28.8516 215.871 20.8435 204C33.5 179 57 146.5 92.5 124.316L155.516 154.629C164.097 158.919 174.194 152.685 174.194 143.089V133.976C180.637 132.935 187.194 132.274 193.863 132.024L216.685 154.847C221.726 159.887 221.726 168.056 216.685 173.097L212.903 176.871L204.565 185.21C202.048 187.726 202.048 191.815 204.565 194.331L208.347 198.113C210.863 200.629 210.863 204.718 208.347 207.234L201.895 213.685C200.684 214.894 199.042 215.573 197.331 215.573H190.081C188.403 215.573 186.79 216.226 185.581 217.403L177.581 225.185C176.6 226.14 175.948 227.382 175.719 228.732C175.49 230.081 175.696 231.469 176.306 232.694L188.879 257.847C191.024 262.137 187.903 267.185 183.113 267.185H178.565C177.008 267.185 175.508 266.621 174.339 265.605L166.855 259.105C165.161 257.636 163.114 256.633 160.916 256.194C158.717 255.756 156.442 255.897 154.315 256.605L129.177 264.984C127.258 265.624 125.589 266.851 124.407 268.493C123.224 270.134 122.588 272.106 122.589 274.129C122.589 277.782 124.653 281.113 127.919 282.75L136.855 287.218C144.444 291.016 152.815 292.992 161.298 292.992C169.782 292.992 179.516 315 187.105 318.798H240.936C247.782 318.798 254.339 321.516 259.185 326.355L270.226 337.395C274.838 342.009 277.429 348.266 277.427 354.79C277.426 359.734 276.447 364.628 274.549 369.193C272.65 373.757 269.868 377.901 266.363 381.387ZM336.29 307.718C331.621 306.548 327.548 303.685 324.879 299.677L310.379 277.927C308.257 274.75 307.125 271.014 307.125 267.194C307.125 263.373 308.257 259.637 310.379 256.46L326.177 232.766C328.048 229.968 330.613 227.694 333.629 226.194L385.865 219C396.768 240.71 399.985 264.589 399.985 290.5C399.985 297.492 399.446 310.242 398.575 317L396.786 328.903L395.5 335L392.329 346.562L389.159 358.124L386.841 364.5L370.5 359L336.29 307.718Z" fill="#537B9C"/>
<path d="M308.806 182.247C255.833 105.726 246 97.8727 246 69.75C246 31.228 277.34 0 316 0C354.66 0 386 31.228 386 69.75C386 97.8727 376.167 105.726 323.194 182.247C319.718 187.251 312.282 187.251 308.806 182.247Z" fill="#EC7070"/>
<circle cx="316" cy="64" r="38" fill="white"/>
<path d="M316.035 45C310.174 45 306.377 47.4272 303.397 51.7558C302.856 52.5411 303.023 53.6177 303.777 54.1957L306.945 56.6233C307.707 57.2071 308.79 57.0706 309.387 56.3155C311.226 53.9864 312.59 52.6454 315.463 52.6454C317.722 52.6454 320.516 54.1149 320.516 56.329C320.516 58.0028 319.149 58.8624 316.919 60.1263C314.318 61.6003 310.876 63.4347 310.876 68.0235V68.75C310.876 69.7338 311.665 70.5312 312.638 70.5312H317.96C318.933 70.5312 319.722 69.7338 319.722 68.75V68.3215C319.722 65.1405 328.92 65.008 328.92 56.4C328.92 49.9174 322.267 45 316.035 45ZM315.299 72.7177C312.494 72.7177 310.212 75.024 310.212 77.8589C310.212 80.6937 312.494 83 315.299 83C318.104 83 320.385 80.6937 320.385 77.8588C320.385 75.0239 318.104 72.7177 315.299 72.7177Z" fill="#EC7070"/>
</svg>
