<svg width="25" height="26" viewBox="0 0 25 26" fill="none" xmlns="http://www.w3.org/2000/svg">
<path d="M24.6582 21.6162L19.79 16.748C19.79 16.748 19.79 16.748 19.5 16.5L19 16C20.3477 14.2764 20.3125 12.5146 20.3125 10.1562C20.3125 4.5459 15.7666 0 10.1562 0C4.5459 0 0 4.5459 0 10.1562C0 15.7666 4.5459 20.3125 10.1562 20.3125C12.5146 20.3125 14.2764 20.3477 16 19C16 19 16.5283 19.5703 16.748 19.79L21.6162 24.6582C22.0752 25.1172 22.8174 25.1172 23.2715 24.6582L24.6533 23.2764C25.1123 22.8174 25.1123 22.0752 24.6582 21.6162ZM10.1562 16.4062C6.7041 16.4062 3.90625 13.6133 3.90625 10.1562C3.90625 6.7041 6.69922 3.90625 10.1562 3.90625C13.6084 3.90625 16.4062 6.69922 16.4062 10.1562C16.4062 13.6084 13.6133 16.4062 10.1562 16.4062Z" fill="black"/>
</svg>
